<svg xmlns="http://www.w3.org/2000/svg" version="1.1" xmlns:xlink="http://www.w3.org/1999/xlink" xmlns:svgjs="http://svgjs.dev/svgjs" width="1500" height="1500" viewBox="0 0 1500 1500"><rect width="1500" height="1500" fill="#000000"></rect><g transform="matrix(0.6666666666666666,0,0,0.6666666666666666,248.69054020624583,455.33333333333337)"><svg viewBox="0 0 339 200" data-background-color="#3d9970" preserveAspectRatio="xMidYMid meet" height="884" width="1500" xmlns="http://www.w3.org/2000/svg" xmlns:xlink="http://www.w3.org/1999/xlink"><g id="tight-bounds" transform="matrix(1,0,0,1,0.4439068700826567,0)"><svg viewBox="0 0 338.1121862598347 200" height="200" width="338.1121862598347"><g><svg viewBox="0 0 339.8027471911338 200.99999999999997" height="200" width="338.1121862598347"><g><rect width="2.775392374424552" height="200.99999999999997" x="130.44394168797953" y="0" fill="#ffffff" opacity="1" stroke-width="0" stroke="transparent" fill-opacity="1" class="rect-yte-0" data-fill-palette-color="primary" rx="1%" id="yte-0" data-palette-color="#e50b00"></rect></g><g transform="matrix(1,0,0,1,140.48475912634268,0.4999999999999858)"><svg viewBox="0 0 199.3179880647911 200" height="200" width="199.3179880647911"><g id="textblocktransform"><svg viewBox="0 0 199.3179880647911 200" height="200" width="199.3179880647911" id="textblock"><g><svg viewBox="0 0 199.3179880647911 200" height="200" width="199.3179880647911"><g transform="matrix(1,0,0,1,0,0)"><svg width="199.3179880647911" viewBox="1.0999999999999996 -34.9 237.35000000000002 230.4" height="200" data-palette-color="#e50b00"><svg></svg><svg></svg><svg></svg><svg></svg><svg></svg><svg></svg><g class="wordmark-text-0" data-fill-palette-color="primary" id="text-0"><path d="M16.4 0h-4.2v-31.2h-11.1v-3.7h26.4v3.7h-11.1zM37.45 0h-4.2v-34.9h4.2v18.55h0.15l5-6.05 10.55-12.5h5.15l-13 14.95 13.9 19.95h-5.2l-11.6-17.15-4.95 5.5zM77.5 0h-4.25l12.2-34.9h5.35l12.2 34.9h-4.4l-3.5-10.3h-14.1zM87.9-31l-5.9 17h12.05l-5.9-17zM112.9 0h-4.1v-34.9h4.85l12.75 21.3 4.2 7.75h0.15v-29.05h4.1v34.9h-4.85l-12.75-21.3-4.2-7.75h-0.15zM155.85 0h-11.7v-34.9h11.7c2.9 0 5.427 0.64 7.58 1.92 2.147 1.287 3.803 3.22 4.97 5.8 1.167 2.587 1.75 5.83 1.75 9.73v0c0 3.9-0.583 7.14-1.75 9.72-1.167 2.587-2.823 4.52-4.97 5.8-2.153 1.287-4.68 1.93-7.58 1.93zM148.35-31.2v27.5h7.5c1.933 0 3.633-0.433 5.1-1.3 1.467-0.867 2.617-2.107 3.45-3.72 0.833-1.62 1.25-3.58 1.25-5.88v0-5.7c0-2.3-0.417-4.267-1.25-5.9-0.833-1.633-1.983-2.877-3.45-3.73-1.467-0.847-3.167-1.27-5.1-1.27v0z" fill="#ffffff" fill-rule="nonzero" stroke="none" stroke-width="1" stroke-linecap="butt" stroke-linejoin="miter" stroke-miterlimit="10" stroke-dasharray="" stroke-dashoffset="0" font-family="none" font-weight="none" font-size="none" text-anchor="none" style="mix-blend-mode: normal" data-fill-palette-color="primary" opacity="1"></path><path transform="translate(0,39.1)" d="M8.75 0h-4.1v-34.9h4.85l12.75 21.3 4.2 7.75h0.15v-29.05h4.1v34.9h-4.85l-12.75-21.3-4.2-7.75h-0.15zM44.2 0h-4.2v-34.9h4.2v18.55h0.15l5-6.05 10.55-12.5h5.15l-13 14.95 13.9 19.95h-5.2l-11.6-17.15-4.95 5.5z" fill="#ffffff" fill-rule="nonzero" stroke="none" stroke-width="1" stroke-linecap="butt" stroke-linejoin="miter" stroke-miterlimit="10" stroke-dasharray="" stroke-dashoffset="0" font-family="none" font-weight="none" font-size="none" text-anchor="none" style="mix-blend-mode: normal" data-fill-palette-color="primary" opacity="1"></path><path transform="translate(0,78.2)" d="M16.4 0h-4.2v-31.2h-11.1v-3.7h26.4v3.7h-11.1zM37.45 0h-4.2v-34.9h13.9c2.033 0 3.777 0.383 5.23 1.15 1.447 0.767 2.563 1.883 3.35 3.35 0.78 1.467 1.17 3.267 1.17 5.4v0c0 2.533-0.6 4.633-1.8 6.3-1.2 1.667-2.933 2.767-5.2 3.3v0l8 15.4h-4.75l-7.55-15h-8.15zM37.45-31.2v12.6h9.7c1.1 0 2.043-0.193 2.83-0.58 0.78-0.38 1.38-0.947 1.8-1.7 0.413-0.747 0.62-1.653 0.62-2.72v0-2.6c0-1.067-0.207-1.977-0.62-2.73-0.42-0.747-1.02-1.313-1.8-1.7-0.787-0.38-1.73-0.57-2.83-0.57v0zM66 0h-4.25l12.2-34.9h5.35l12.2 34.9h-4.4l-3.5-10.3h-14.1zM76.4-31l-5.9 17h12.05l-5.9-17zM109 0h-11.7v-34.9h11.7c2.9 0 5.427 0.64 7.58 1.92 2.147 1.287 3.803 3.22 4.97 5.8 1.167 2.587 1.75 5.83 1.75 9.73v0c0 3.9-0.583 7.14-1.75 9.72-1.167 2.587-2.823 4.52-4.97 5.8-2.153 1.287-4.68 1.93-7.58 1.93zM101.5-31.2v27.5h7.5c1.933 0 3.633-0.433 5.1-1.3 1.467-0.867 2.617-2.107 3.45-3.72 0.833-1.62 1.25-3.58 1.25-5.88v0-5.7c0-2.3-0.417-4.267-1.25-5.9-0.833-1.633-1.983-2.877-3.45-3.73-1.467-0.847-3.167-1.27-5.1-1.27v0zM143.2 0h-14v-3.5h4.9v-27.9h-4.9v-3.5h14v3.5h-4.9v27.9h4.9zM154.95 0h-4.1v-34.9h4.85l12.75 21.3 4.2 7.75h0.15v-29.05h4.1v34.9h-4.85l-12.75-21.3-4.2-7.75h-0.15zM198.95 0.6v0c-2.833 0-5.34-0.693-7.52-2.08-2.187-1.38-3.897-3.413-5.13-6.1-1.233-2.68-1.85-5.97-1.85-9.87v0c0-3.867 0.617-7.143 1.85-9.83 1.233-2.68 2.967-4.72 5.2-6.12 2.233-1.4 4.833-2.1 7.8-2.1v0c3.133 0 5.75 0.707 7.85 2.12 2.1 1.42 3.717 3.263 4.85 5.53v0l-3.45 2.1c-0.8-1.867-1.99-3.333-3.57-4.4-1.587-1.067-3.48-1.6-5.68-1.6v0c-2.033 0-3.833 0.473-5.4 1.42-1.567 0.953-2.783 2.287-3.65 4-0.867 1.72-1.3 3.73-1.3 6.03v0 5.65c0 2.3 0.433 4.307 1.3 6.02 0.867 1.72 2.11 3.063 3.73 4.03 1.613 0.967 3.52 1.45 5.72 1.45v0c1.633 0 3.117-0.283 4.45-0.85 1.333-0.567 2.41-1.417 3.23-2.55 0.813-1.133 1.22-2.55 1.22-4.25v0-3.45h-7.7v-3.7h11.8v17.95h-3.9v-5.1h-0.15c-0.433 1.633-1.49 2.99-3.17 4.07-1.687 1.087-3.863 1.63-6.53 1.63z" fill="#ffffff" fill-rule="nonzero" stroke="none" stroke-width="1" stroke-linecap="butt" stroke-linejoin="miter" stroke-miterlimit="10" stroke-dasharray="" stroke-dashoffset="0" font-family="none" font-weight="none" font-size="none" text-anchor="none" style="mix-blend-mode: normal" data-fill-palette-color="primary" opacity="1"></path><path transform="translate(0,117.3)" d="M5.4 0h-4.25l12.2-34.9h5.35l12.2 34.9h-4.4l-3.5-10.3h-14.1zM15.8-31l-5.9 17h12.05l-5.9-17zM40.8 0h-4.1v-34.9h4.85l12.75 21.3 4.2 7.75h0.15v-29.05h4.1v34.9h-4.85l-12.75-21.3-4.2-7.75h-0.15zM83.75 0h-11.7v-34.9h11.7c2.9 0 5.427 0.64 7.58 1.92 2.147 1.287 3.803 3.22 4.97 5.8 1.167 2.587 1.75 5.83 1.75 9.73v0c0 3.9-0.583 7.14-1.75 9.72-1.167 2.587-2.823 4.52-4.97 5.8-2.153 1.287-4.68 1.93-7.58 1.93zM76.25-31.2v27.5h7.5c1.933 0 3.633-0.433 5.1-1.3 1.467-0.867 2.617-2.107 3.45-3.72 0.833-1.62 1.25-3.58 1.25-5.88v0-5.7c0-2.3-0.417-4.267-1.25-5.9-0.833-1.633-1.983-2.877-3.45-3.73-1.467-0.847-3.167-1.27-5.1-1.27v0z" fill="#ffffff" fill-rule="nonzero" stroke="none" stroke-width="1" stroke-linecap="butt" stroke-linejoin="miter" stroke-miterlimit="10" stroke-dasharray="" stroke-dashoffset="0" font-family="none" font-weight="none" font-size="none" text-anchor="none" style="mix-blend-mode: normal" data-fill-palette-color="primary" opacity="1"></path><path transform="translate(0,156.4)" d="M8.85 0h-4.2v-34.9h13.9c2.1 0 3.877 0.407 5.33 1.22 1.447 0.82 2.547 1.97 3.3 3.45 0.747 1.487 1.12 3.263 1.12 5.33v0c0 2.033-0.373 3.8-1.12 5.3-0.753 1.5-1.853 2.657-3.3 3.47-1.453 0.82-3.23 1.23-5.33 1.23v0h-9.7zM8.85-31.2v12.6h9.7c1.1 0 2.043-0.193 2.83-0.58 0.78-0.38 1.38-0.947 1.8-1.7 0.413-0.747 0.62-1.653 0.62-2.72v0-2.6c0-1.067-0.207-1.977-0.62-2.73-0.42-0.747-1.02-1.313-1.8-1.7-0.787-0.38-1.73-0.57-2.83-0.57v0zM39.15 0h-4.2v-34.9h13.9c2.033 0 3.777 0.383 5.23 1.15 1.447 0.767 2.56 1.883 3.34 3.35 0.787 1.467 1.18 3.267 1.18 5.4v0c0 2.533-0.6 4.633-1.8 6.3-1.2 1.667-2.933 2.767-5.2 3.3v0l8 15.4h-4.75l-7.55-15h-8.15zM39.15-31.2v12.6h9.7c1.1 0 2.04-0.193 2.82-0.58 0.787-0.38 1.39-0.947 1.81-1.7 0.413-0.747 0.62-1.653 0.62-2.72v0-2.6c0-1.067-0.207-1.977-0.62-2.73-0.42-0.747-1.023-1.313-1.81-1.7-0.78-0.38-1.72-0.57-2.82-0.57v0zM80 0.6v0c-3 0-5.61-0.693-7.83-2.08-2.213-1.38-3.93-3.413-5.15-6.1-1.213-2.68-1.82-5.97-1.82-9.87v0c0-3.9 0.607-7.193 1.82-9.88 1.22-2.68 2.937-4.713 5.15-6.1 2.22-1.38 4.83-2.07 7.83-2.07v0c3 0 5.61 0.69 7.83 2.07 2.213 1.387 3.927 3.42 5.14 6.1 1.22 2.687 1.83 5.98 1.83 9.88v0c0 3.9-0.61 7.19-1.83 9.87-1.213 2.687-2.927 4.72-5.14 6.1-2.22 1.387-4.83 2.08-7.83 2.08zM80-3.15v0c2.033 0 3.817-0.477 5.35-1.43 1.533-0.947 2.74-2.27 3.62-3.97 0.887-1.7 1.33-3.7 1.33-6v0-5.8c0-2.3-0.443-4.31-1.33-6.03-0.88-1.713-2.087-3.037-3.62-3.97-1.533-0.933-3.317-1.4-5.35-1.4v0c-2 0-3.777 0.467-5.33 1.4-1.547 0.933-2.763 2.257-3.65 3.97-0.88 1.72-1.32 3.73-1.32 6.03v0 5.8c0 2.3 0.44 4.3 1.32 6 0.887 1.7 2.103 3.023 3.65 3.97 1.553 0.953 3.33 1.43 5.33 1.43zM108.8 0.6v0c-2.7 0-4.877-0.733-6.53-2.2-1.647-1.467-2.703-3.383-3.17-5.75v0l3.8-0.9c0.333 1.5 0.973 2.723 1.92 3.67 0.953 0.953 2.313 1.43 4.08 1.43v0c1.8 0 3.2-0.55 4.2-1.65 1-1.1 1.5-2.767 1.5-5v0-21.4h-12v-3.7h16.2v25.85c0 1.967-0.427 3.673-1.28 5.12-0.847 1.453-2.02 2.57-3.52 3.35-1.5 0.787-3.233 1.18-5.2 1.18zM149.15 0h-21.3v-34.9h21.3v3.7h-17.1v11.7h16.1v3.7h-16.1v12.1h17.1zM169.3 0.6v0c-2.933 0-5.45-0.677-7.55-2.03-2.1-1.347-3.71-3.347-4.83-6-1.113-2.647-1.67-5.92-1.67-9.82v0c0-3.9 0.557-7.21 1.67-9.93 1.12-2.713 2.73-4.78 4.83-6.2 2.1-1.413 4.617-2.12 7.55-2.12v0c2.9 0 5.35 0.667 7.35 2 2 1.333 3.55 3.217 4.65 5.65v0l-3.4 2.05c-0.7-1.8-1.767-3.243-3.2-4.33-1.433-1.08-3.233-1.62-5.4-1.62v0c-3 0-5.34 1.09-7.02 3.27-1.687 2.187-2.53 5.063-2.53 8.63v0 5.2c0 3.567 0.843 6.373 2.53 8.42 1.68 2.053 4.02 3.08 7.02 3.08v0c2.233 0 4.1-0.577 5.6-1.73 1.5-1.147 2.6-2.67 3.3-4.57v0l3.35 2.1c-1.1 2.433-2.69 4.367-4.77 5.8-2.087 1.433-4.58 2.15-7.48 2.15zM199.8 0h-4.2v-31.2h-11.1v-3.7h26.4v3.7h-11.1zM226.45 0.6v0c-2.8 0-5.21-0.543-7.23-1.63-2.013-1.08-3.72-2.57-5.12-4.47v0l3.1-2.6c1.233 1.633 2.6 2.873 4.1 3.72 1.5 0.853 3.267 1.28 5.3 1.28v0c2.5 0 4.407-0.6 5.72-1.8 1.32-1.2 1.98-2.8 1.98-4.8v0c0-1.1-0.217-2.033-0.65-2.8-0.433-0.767-1.127-1.41-2.08-1.93-0.947-0.513-2.187-0.937-3.72-1.27v0l-2.85-0.65c-2.1-0.5-3.883-1.15-5.35-1.95-1.467-0.8-2.583-1.833-3.35-3.1-0.767-1.267-1.15-2.783-1.15-4.55v0c0-2.067 0.483-3.81 1.45-5.23 0.967-1.413 2.327-2.487 4.08-3.22 1.747-0.733 3.753-1.1 6.02-1.1v0c2.633 0 4.89 0.483 6.77 1.45 1.887 0.967 3.48 2.383 4.78 4.25v0l-3.15 2.3c-0.933-1.333-2.09-2.383-3.47-3.15-1.387-0.767-3.097-1.15-5.13-1.15v0c-2.233 0-3.993 0.483-5.28 1.45-1.28 0.967-1.92 2.383-1.92 4.25v0c0 1.1 0.243 2.017 0.73 2.75 0.48 0.733 1.203 1.34 2.17 1.82 0.967 0.487 2.183 0.897 3.65 1.23v0l2.85 0.65c2.267 0.5 4.117 1.183 5.55 2.05 1.433 0.867 2.493 1.933 3.18 3.2 0.68 1.267 1.02 2.767 1.02 4.5v0c0 2.133-0.483 3.983-1.45 5.55-0.967 1.567-2.34 2.783-4.12 3.65-1.787 0.867-3.93 1.3-6.43 1.3z" fill="#ffffff" fill-rule="nonzero" stroke="none" stroke-width="1" stroke-linecap="butt" stroke-linejoin="miter" stroke-miterlimit="10" stroke-dasharray="" stroke-dashoffset="0" font-family="none" font-weight="none" font-size="none" text-anchor="none" style="mix-blend-mode: normal" data-fill-palette-color="primary" opacity="1"></path><path transform="translate(0,195.5)" d="M8.85 0h-4.2v-34.9h13.9c2.1 0 3.877 0.407 5.33 1.22 1.447 0.82 2.547 1.97 3.3 3.45 0.747 1.487 1.12 3.263 1.12 5.33v0c0 2.033-0.373 3.8-1.12 5.3-0.753 1.5-1.853 2.657-3.3 3.47-1.453 0.82-3.23 1.23-5.33 1.23v0h-9.7zM8.85-31.2v12.6h9.7c1.1 0 2.043-0.193 2.83-0.58 0.78-0.38 1.38-0.947 1.8-1.7 0.413-0.747 0.62-1.653 0.62-2.72v0-2.6c0-1.067-0.207-1.977-0.62-2.73-0.42-0.747-1.02-1.313-1.8-1.7-0.787-0.38-1.73-0.57-2.83-0.57v0zM46.7 0h-4.2v-31.2h-11.1v-3.7h26.4v3.7h-11.1zM75.75 0h-4.2v-13.8l-12-21.1h4.8l9.3 16.8h0.15l9.3-16.8h4.8l-12.15 20.95zM124.05 0h-19.05v-34.9h4.2v31.2h14.85zM141.8 0h-4.2v-31.2h-11.1v-3.7h26.4v3.7h-11.1zM170.35 0h-11.7v-34.9h11.7c2.9 0 5.427 0.64 7.58 1.92 2.147 1.287 3.803 3.22 4.97 5.8 1.167 2.587 1.75 5.83 1.75 9.73v0c0 3.9-0.583 7.14-1.75 9.72-1.167 2.587-2.823 4.52-4.97 5.8-2.153 1.287-4.68 1.93-7.58 1.93zM162.85-31.2v27.5h7.5c1.933 0 3.633-0.433 5.1-1.3 1.467-0.867 2.617-2.107 3.45-3.72 0.833-1.62 1.25-3.58 1.25-5.88v0-5.7c0-2.3-0.417-4.267-1.25-5.9-0.833-1.633-1.983-2.877-3.45-3.73-1.467-0.847-3.167-1.27-5.1-1.27v0z" fill="#ffffff" fill-rule="nonzero" stroke="none" stroke-width="1" stroke-linecap="butt" stroke-linejoin="miter" stroke-miterlimit="10" stroke-dasharray="" stroke-dashoffset="0" font-family="none" font-weight="none" font-size="none" text-anchor="none" style="mix-blend-mode: normal" data-fill-palette-color="primary" opacity="1"></path></g></svg></g></svg></g></svg></g></svg></g><g transform="matrix(1,0,0,1,0,58.388344629156)"><svg viewBox="0 0 123.17851662404092 84.22331074168797" height="84.22331074168797" width="123.17851662404092"><g><svg xmlns="http://www.w3.org/2000/svg" xmlns:xlink="http://www.w3.org/1999/xlink" version="1.1" x="0" y="0" viewBox="10 22.65 80 54.699999999999996" style="enable-background:new 0 0 100 100;" xml:space="preserve" height="84.22331074168797" width="123.17851662404092" class="icon-icon-0" data-fill-palette-color="accent" id="icon-0"></svg></g></svg></g></svg></g><defs></defs><mask id="d42b6d58-945d-432b-b74b-3efc32ac1d5a"><g id="SvgjsG7039"><svg viewBox="0 0 338.1121862598347 200" height="200" width="338.1121862598347"><g><svg viewBox="0 0 339.8027471911338 200.99999999999997" height="200" width="338.1121862598347"><g><rect width="2.775392374424552" height="200.99999999999997" x="130.44394168797953" y="0" fill="black" opacity="1" stroke-width="0" stroke="transparent" fill-opacity="1" class="rect-yte-0" rx="1%" id="SvgjsRect7038" data-palette-color="#e50b00"></rect></g><g transform="matrix(1,0,0,1,140.48475912634268,0.4999999999999858)"><svg viewBox="0 0 199.3179880647911 200" height="200" width="199.3179880647911"><g id="SvgjsG7037"><svg viewBox="0 0 199.3179880647911 200" height="200" width="199.3179880647911" id="SvgjsSvg7036"><g><svg viewBox="0 0 199.3179880647911 200" height="200" width="199.3179880647911"><g transform="matrix(1,0,0,1,0,0)"><svg width="199.3179880647911" viewBox="1.0999999999999996 -34.9 237.35000000000002 230.4" height="200" data-palette-color="#e50b00"><svg></svg><svg></svg><svg></svg><svg></svg><svg></svg><svg></svg><g class="wordmark-text-0" data-fill-palette-color="primary" id="SvgjsG7035"><path d="M16.4 0h-4.2v-31.2h-11.1v-3.7h26.4v3.7h-11.1zM37.45 0h-4.2v-34.9h4.2v18.55h0.15l5-6.05 10.55-12.5h5.15l-13 14.95 13.9 19.95h-5.2l-11.6-17.15-4.95 5.5zM77.5 0h-4.25l12.2-34.9h5.35l12.2 34.9h-4.4l-3.5-10.3h-14.1zM87.9-31l-5.9 17h12.05l-5.9-17zM112.9 0h-4.1v-34.9h4.85l12.75 21.3 4.2 7.75h0.15v-29.05h4.1v34.9h-4.85l-12.75-21.3-4.2-7.75h-0.15zM155.85 0h-11.7v-34.9h11.7c2.9 0 5.427 0.64 7.58 1.92 2.147 1.287 3.803 3.22 4.97 5.8 1.167 2.587 1.75 5.83 1.75 9.73v0c0 3.9-0.583 7.14-1.75 9.72-1.167 2.587-2.823 4.52-4.97 5.8-2.153 1.287-4.68 1.93-7.58 1.93zM148.35-31.2v27.5h7.5c1.933 0 3.633-0.433 5.1-1.3 1.467-0.867 2.617-2.107 3.45-3.72 0.833-1.62 1.25-3.58 1.25-5.88v0-5.7c0-2.3-0.417-4.267-1.25-5.9-0.833-1.633-1.983-2.877-3.45-3.73-1.467-0.847-3.167-1.27-5.1-1.27v0z" fill="black" fill-rule="nonzero" stroke="none" stroke-width="1" stroke-linecap="butt" stroke-linejoin="miter" stroke-miterlimit="10" stroke-dasharray="" stroke-dashoffset="0" font-family="none" font-weight="none" font-size="none" text-anchor="none" style="mix-blend-mode: normal" opacity="1"></path><path transform="translate(0,39.1)" d="M8.75 0h-4.1v-34.9h4.85l12.75 21.3 4.2 7.75h0.15v-29.05h4.1v34.9h-4.85l-12.75-21.3-4.2-7.75h-0.15zM44.2 0h-4.2v-34.9h4.2v18.55h0.15l5-6.05 10.55-12.5h5.15l-13 14.95 13.9 19.95h-5.2l-11.6-17.15-4.95 5.5z" fill="black" fill-rule="nonzero" stroke="none" stroke-width="1" stroke-linecap="butt" stroke-linejoin="miter" stroke-miterlimit="10" stroke-dasharray="" stroke-dashoffset="0" font-family="none" font-weight="none" font-size="none" text-anchor="none" style="mix-blend-mode: normal" opacity="1"></path><path transform="translate(0,78.2)" d="M16.4 0h-4.2v-31.2h-11.1v-3.7h26.4v3.7h-11.1zM37.45 0h-4.2v-34.9h13.9c2.033 0 3.777 0.383 5.23 1.15 1.447 0.767 2.563 1.883 3.35 3.35 0.78 1.467 1.17 3.267 1.17 5.4v0c0 2.533-0.6 4.633-1.8 6.3-1.2 1.667-2.933 2.767-5.2 3.3v0l8 15.4h-4.75l-7.55-15h-8.15zM37.45-31.2v12.6h9.7c1.1 0 2.043-0.193 2.83-0.58 0.78-0.38 1.38-0.947 1.8-1.7 0.413-0.747 0.62-1.653 0.62-2.72v0-2.6c0-1.067-0.207-1.977-0.62-2.73-0.42-0.747-1.02-1.313-1.8-1.7-0.787-0.38-1.73-0.57-2.83-0.57v0zM66 0h-4.25l12.2-34.9h5.35l12.2 34.9h-4.4l-3.5-10.3h-14.1zM76.4-31l-5.9 17h12.05l-5.9-17zM109 0h-11.7v-34.9h11.7c2.9 0 5.427 0.64 7.58 1.92 2.147 1.287 3.803 3.22 4.97 5.8 1.167 2.587 1.75 5.83 1.75 9.73v0c0 3.9-0.583 7.14-1.75 9.72-1.167 2.587-2.823 4.52-4.97 5.8-2.153 1.287-4.68 1.93-7.58 1.93zM101.5-31.2v27.5h7.5c1.933 0 3.633-0.433 5.1-1.3 1.467-0.867 2.617-2.107 3.45-3.72 0.833-1.62 1.25-3.58 1.25-5.88v0-5.7c0-2.3-0.417-4.267-1.25-5.9-0.833-1.633-1.983-2.877-3.45-3.73-1.467-0.847-3.167-1.27-5.1-1.27v0zM143.2 0h-14v-3.5h4.9v-27.9h-4.9v-3.5h14v3.5h-4.9v27.9h4.9zM154.95 0h-4.1v-34.9h4.85l12.75 21.3 4.2 7.75h0.15v-29.05h4.1v34.9h-4.85l-12.75-21.3-4.2-7.75h-0.15zM198.95 0.6v0c-2.833 0-5.34-0.693-7.52-2.08-2.187-1.38-3.897-3.413-5.13-6.1-1.233-2.68-1.85-5.97-1.85-9.87v0c0-3.867 0.617-7.143 1.85-9.83 1.233-2.68 2.967-4.72 5.2-6.12 2.233-1.4 4.833-2.1 7.8-2.1v0c3.133 0 5.75 0.707 7.85 2.12 2.1 1.42 3.717 3.263 4.85 5.53v0l-3.45 2.1c-0.8-1.867-1.99-3.333-3.57-4.4-1.587-1.067-3.48-1.6-5.68-1.6v0c-2.033 0-3.833 0.473-5.4 1.42-1.567 0.953-2.783 2.287-3.65 4-0.867 1.72-1.3 3.73-1.3 6.03v0 5.65c0 2.3 0.433 4.307 1.3 6.02 0.867 1.72 2.11 3.063 3.73 4.03 1.613 0.967 3.52 1.45 5.72 1.45v0c1.633 0 3.117-0.283 4.45-0.85 1.333-0.567 2.41-1.417 3.23-2.55 0.813-1.133 1.22-2.55 1.22-4.25v0-3.45h-7.7v-3.7h11.8v17.95h-3.9v-5.1h-0.15c-0.433 1.633-1.49 2.99-3.17 4.07-1.687 1.087-3.863 1.63-6.53 1.63z" fill="black" fill-rule="nonzero" stroke="none" stroke-width="1" stroke-linecap="butt" stroke-linejoin="miter" stroke-miterlimit="10" stroke-dasharray="" stroke-dashoffset="0" font-family="none" font-weight="none" font-size="none" text-anchor="none" style="mix-blend-mode: normal" opacity="1"></path><path transform="translate(0,117.3)" d="M5.4 0h-4.25l12.2-34.9h5.35l12.2 34.9h-4.4l-3.5-10.3h-14.1zM15.8-31l-5.9 17h12.05l-5.9-17zM40.8 0h-4.1v-34.9h4.85l12.75 21.3 4.2 7.75h0.15v-29.05h4.1v34.9h-4.85l-12.75-21.3-4.2-7.75h-0.15zM83.75 0h-11.7v-34.9h11.7c2.9 0 5.427 0.64 7.58 1.92 2.147 1.287 3.803 3.22 4.97 5.8 1.167 2.587 1.75 5.83 1.75 9.73v0c0 3.9-0.583 7.14-1.75 9.72-1.167 2.587-2.823 4.52-4.97 5.8-2.153 1.287-4.68 1.93-7.58 1.93zM76.25-31.2v27.5h7.5c1.933 0 3.633-0.433 5.1-1.3 1.467-0.867 2.617-2.107 3.45-3.72 0.833-1.62 1.25-3.58 1.25-5.88v0-5.7c0-2.3-0.417-4.267-1.25-5.9-0.833-1.633-1.983-2.877-3.45-3.73-1.467-0.847-3.167-1.27-5.1-1.27v0z" fill="black" fill-rule="nonzero" stroke="none" stroke-width="1" stroke-linecap="butt" stroke-linejoin="miter" stroke-miterlimit="10" stroke-dasharray="" stroke-dashoffset="0" font-family="none" font-weight="none" font-size="none" text-anchor="none" style="mix-blend-mode: normal" opacity="1"></path><path transform="translate(0,156.4)" d="M8.85 0h-4.2v-34.9h13.9c2.1 0 3.877 0.407 5.33 1.22 1.447 0.82 2.547 1.97 3.3 3.45 0.747 1.487 1.12 3.263 1.12 5.33v0c0 2.033-0.373 3.8-1.12 5.3-0.753 1.5-1.853 2.657-3.3 3.47-1.453 0.82-3.23 1.23-5.33 1.23v0h-9.7zM8.85-31.2v12.6h9.7c1.1 0 2.043-0.193 2.83-0.58 0.78-0.38 1.38-0.947 1.8-1.7 0.413-0.747 0.62-1.653 0.62-2.72v0-2.6c0-1.067-0.207-1.977-0.62-2.73-0.42-0.747-1.02-1.313-1.8-1.7-0.787-0.38-1.73-0.57-2.83-0.57v0zM39.15 0h-4.2v-34.9h13.9c2.033 0 3.777 0.383 5.23 1.15 1.447 0.767 2.56 1.883 3.34 3.35 0.787 1.467 1.18 3.267 1.18 5.4v0c0 2.533-0.6 4.633-1.8 6.3-1.2 1.667-2.933 2.767-5.2 3.3v0l8 15.4h-4.75l-7.55-15h-8.15zM39.15-31.2v12.6h9.7c1.1 0 2.04-0.193 2.82-0.58 0.787-0.38 1.39-0.947 1.81-1.7 0.413-0.747 0.62-1.653 0.62-2.72v0-2.6c0-1.067-0.207-1.977-0.62-2.73-0.42-0.747-1.023-1.313-1.81-1.7-0.78-0.38-1.72-0.57-2.82-0.57v0zM80 0.6v0c-3 0-5.61-0.693-7.83-2.08-2.213-1.38-3.93-3.413-5.15-6.1-1.213-2.68-1.82-5.97-1.82-9.87v0c0-3.9 0.607-7.193 1.82-9.88 1.22-2.68 2.937-4.713 5.15-6.1 2.22-1.38 4.83-2.07 7.83-2.07v0c3 0 5.61 0.69 7.83 2.07 2.213 1.387 3.927 3.42 5.14 6.1 1.22 2.687 1.83 5.98 1.83 9.88v0c0 3.9-0.61 7.19-1.83 9.87-1.213 2.687-2.927 4.72-5.14 6.1-2.22 1.387-4.83 2.08-7.83 2.08zM80-3.15v0c2.033 0 3.817-0.477 5.35-1.43 1.533-0.947 2.74-2.27 3.62-3.97 0.887-1.7 1.33-3.7 1.33-6v0-5.8c0-2.3-0.443-4.31-1.33-6.03-0.88-1.713-2.087-3.037-3.62-3.97-1.533-0.933-3.317-1.4-5.35-1.4v0c-2 0-3.777 0.467-5.33 1.4-1.547 0.933-2.763 2.257-3.65 3.97-0.88 1.72-1.32 3.73-1.32 6.03v0 5.8c0 2.3 0.44 4.3 1.32 6 0.887 1.7 2.103 3.023 3.65 3.97 1.553 0.953 3.33 1.43 5.33 1.43zM108.8 0.6v0c-2.7 0-4.877-0.733-6.53-2.2-1.647-1.467-2.703-3.383-3.17-5.75v0l3.8-0.9c0.333 1.5 0.973 2.723 1.92 3.67 0.953 0.953 2.313 1.43 4.08 1.43v0c1.8 0 3.2-0.55 4.2-1.65 1-1.1 1.5-2.767 1.5-5v0-21.4h-12v-3.7h16.2v25.85c0 1.967-0.427 3.673-1.28 5.12-0.847 1.453-2.02 2.57-3.52 3.35-1.5 0.787-3.233 1.18-5.2 1.18zM149.15 0h-21.3v-34.9h21.3v3.7h-17.1v11.7h16.1v3.7h-16.1v12.1h17.1zM169.3 0.6v0c-2.933 0-5.45-0.677-7.55-2.03-2.1-1.347-3.71-3.347-4.83-6-1.113-2.647-1.67-5.92-1.67-9.82v0c0-3.9 0.557-7.21 1.67-9.93 1.12-2.713 2.73-4.78 4.83-6.2 2.1-1.413 4.617-2.12 7.55-2.12v0c2.9 0 5.35 0.667 7.35 2 2 1.333 3.55 3.217 4.65 5.65v0l-3.4 2.05c-0.7-1.8-1.767-3.243-3.2-4.33-1.433-1.08-3.233-1.62-5.4-1.62v0c-3 0-5.34 1.09-7.02 3.27-1.687 2.187-2.53 5.063-2.53 8.63v0 5.2c0 3.567 0.843 6.373 2.53 8.42 1.68 2.053 4.02 3.08 7.02 3.08v0c2.233 0 4.1-0.577 5.6-1.73 1.5-1.147 2.6-2.67 3.3-4.57v0l3.35 2.1c-1.1 2.433-2.69 4.367-4.77 5.8-2.087 1.433-4.58 2.15-7.48 2.15zM199.8 0h-4.2v-31.2h-11.1v-3.7h26.4v3.7h-11.1zM226.45 0.6v0c-2.8 0-5.21-0.543-7.23-1.63-2.013-1.08-3.72-2.57-5.12-4.47v0l3.1-2.6c1.233 1.633 2.6 2.873 4.1 3.72 1.5 0.853 3.267 1.28 5.3 1.28v0c2.5 0 4.407-0.6 5.72-1.8 1.32-1.2 1.98-2.8 1.98-4.8v0c0-1.1-0.217-2.033-0.65-2.8-0.433-0.767-1.127-1.41-2.08-1.93-0.947-0.513-2.187-0.937-3.72-1.27v0l-2.85-0.65c-2.1-0.5-3.883-1.15-5.35-1.95-1.467-0.8-2.583-1.833-3.35-3.1-0.767-1.267-1.15-2.783-1.15-4.55v0c0-2.067 0.483-3.81 1.45-5.23 0.967-1.413 2.327-2.487 4.08-3.22 1.747-0.733 3.753-1.1 6.02-1.1v0c2.633 0 4.89 0.483 6.77 1.45 1.887 0.967 3.48 2.383 4.78 4.25v0l-3.15 2.3c-0.933-1.333-2.09-2.383-3.47-3.15-1.387-0.767-3.097-1.15-5.13-1.15v0c-2.233 0-3.993 0.483-5.28 1.45-1.28 0.967-1.92 2.383-1.92 4.25v0c0 1.1 0.243 2.017 0.73 2.75 0.48 0.733 1.203 1.34 2.17 1.82 0.967 0.487 2.183 0.897 3.65 1.23v0l2.85 0.65c2.267 0.5 4.117 1.183 5.55 2.05 1.433 0.867 2.493 1.933 3.18 3.2 0.68 1.267 1.02 2.767 1.02 4.5v0c0 2.133-0.483 3.983-1.45 5.55-0.967 1.567-2.34 2.783-4.12 3.65-1.787 0.867-3.93 1.3-6.43 1.3z" fill="black" fill-rule="nonzero" stroke="none" stroke-width="1" stroke-linecap="butt" stroke-linejoin="miter" stroke-miterlimit="10" stroke-dasharray="" stroke-dashoffset="0" font-family="none" font-weight="none" font-size="none" text-anchor="none" style="mix-blend-mode: normal" opacity="1"></path><path transform="translate(0,195.5)" d="M8.85 0h-4.2v-34.9h13.9c2.1 0 3.877 0.407 5.33 1.22 1.447 0.82 2.547 1.97 3.3 3.45 0.747 1.487 1.12 3.263 1.12 5.33v0c0 2.033-0.373 3.8-1.12 5.3-0.753 1.5-1.853 2.657-3.3 3.47-1.453 0.82-3.23 1.23-5.33 1.23v0h-9.7zM8.85-31.2v12.6h9.7c1.1 0 2.043-0.193 2.83-0.58 0.78-0.38 1.38-0.947 1.8-1.7 0.413-0.747 0.62-1.653 0.62-2.72v0-2.6c0-1.067-0.207-1.977-0.62-2.73-0.42-0.747-1.02-1.313-1.8-1.7-0.787-0.38-1.73-0.57-2.83-0.57v0zM46.7 0h-4.2v-31.2h-11.1v-3.7h26.4v3.7h-11.1zM75.75 0h-4.2v-13.8l-12-21.1h4.8l9.3 16.8h0.15l9.3-16.8h4.8l-12.15 20.95zM124.05 0h-19.05v-34.9h4.2v31.2h14.85zM141.8 0h-4.2v-31.2h-11.1v-3.7h26.4v3.7h-11.1zM170.35 0h-11.7v-34.9h11.7c2.9 0 5.427 0.64 7.58 1.92 2.147 1.287 3.803 3.22 4.97 5.8 1.167 2.587 1.75 5.83 1.75 9.73v0c0 3.9-0.583 7.14-1.75 9.72-1.167 2.587-2.823 4.52-4.97 5.8-2.153 1.287-4.68 1.93-7.58 1.93zM162.85-31.2v27.5h7.5c1.933 0 3.633-0.433 5.1-1.3 1.467-0.867 2.617-2.107 3.45-3.72 0.833-1.62 1.25-3.58 1.25-5.88v0-5.7c0-2.3-0.417-4.267-1.25-5.9-0.833-1.633-1.983-2.877-3.45-3.73-1.467-0.847-3.167-1.27-5.1-1.27v0z" fill="black" fill-rule="nonzero" stroke="none" stroke-width="1" stroke-linecap="butt" stroke-linejoin="miter" stroke-miterlimit="10" stroke-dasharray="" stroke-dashoffset="0" font-family="none" font-weight="none" font-size="none" text-anchor="none" style="mix-blend-mode: normal" opacity="1"></path></g></svg></g></svg></g></svg></g></svg></g><g transform="matrix(1,0,0,1,0,58.388344629156)"><svg viewBox="0 0 123.17851662404092 84.22331074168797" height="84.22331074168797" width="123.17851662404092"><g><svg xmlns="http://www.w3.org/2000/svg" xmlns:xlink="http://www.w3.org/1999/xlink" version="1.1" x="0" y="0" viewBox="10 22.65 80 54.699999999999996" style="enable-background:new 0 0 100 100;" xml:space="preserve" height="84.22331074168797" width="123.17851662404092" class="icon-icon-0" data-fill-palette-color="accent" id="SvgjsSvg7034"><g fill="white"><path d="M88.798 69.473H59.64L56.656 72.958A0.98 0.98 0 0 1 55.909 73.302H44.09A0.98 0.98 0 0 1 43.344 72.958L40.36 69.473H11.202C10.539 69.473 10 70.013 10 70.675V75.055A2.297 2.297 0 0 0 12.295 77.35H87.705A2.297 2.297 0 0 0 90 75.055V70.675C90 70.012 89.461 69.473 88.798 69.473M16.598 74.395H14.275A0.984 0.984 0 1 1 14.275 72.428H16.598A0.984 0.984 0 1 1 16.598 74.395M23.702 74.395H21.379A0.984 0.984 0 1 1 21.38 72.428H23.702A0.984 0.984 0 1 1 23.702 74.395" fill="white"></path><path d="M17.835 67.506H82.165C82.828 67.506 83.367 66.966 83.367 66.303V23.853C83.367 23.19 82.827 22.65 82.165 22.65H17.835C17.172 22.65 16.633 23.19 16.633 23.852V66.303C16.633 66.966 17.173 67.506 17.835 67.506M51.16 65.596H48.84A0.984 0.984 0 1 1 48.839 63.63H51.16A0.984 0.984 0 1 1 51.161 65.596M49.821 24.56H50.179A0.984 0.984 0 1 1 50.178 26.526H49.822A0.984 0.984 0 1 1 49.822 24.56M20.784 29.42A0.983 0.983 0 0 1 21.767 28.435H78.233C78.776 28.435 79.217 28.875 79.217 29.42V60.737C79.217 61.28 78.777 61.72 78.233 61.72H21.767A0.984 0.984 0 0 1 20.783 60.737z" fill="white"></path><path d="M29.508 48.371C28.965 48.371 28.524 48.863 28.524 49.407 28.524 51.174 29.736 52.652 31.368 53.089V54.645A0.984 0.984 0 0 0 33.336 54.645V53.089C34.968 52.65 36.18 51.174 36.18 49.407V48.447A4.08 4.08 0 0 0 33.98 44.82L31.633 43.592A2.12 2.12 0 0 1 30.492 41.71V40.749C30.492 39.724 31.327 38.89 32.352 38.89S34.212 39.724 34.212 40.853C34.211 41.396 34.651 41.784 35.195 41.784S36.18 41.292 36.18 40.75C36.18 38.981 34.968 37.504 33.336 37.066V35.511A0.984 0.984 0 0 0 31.368 35.51V37.066C29.736 37.503 28.524 38.981 28.524 40.75V41.71C28.524 43.239 29.367 44.629 30.722 45.336L33.071 46.563A2.12 2.12 0 0 1 34.21 48.447V49.407A1.86 1.86 0 0 1 32.352 51.267 1.86 1.86 0 0 1 30.492 49.406V49.303C30.492 48.76 30.052 48.371 29.508 48.371" fill="white"></path><path d="M40.813 56.903C41.356 56.903 41.797 56.463 41.797 55.92V36.708A0.984 0.984 0 0 0 39.829 36.708V55.92C39.829 56.463 40.269 56.903 40.813 56.903" fill="white"></path><path d="M47.435 46.703C47.68 46.703 47.925 46.613 48.115 46.43L51.556 43.14 53.067 44.492A0.982 0.982 0 0 0 54.597 44.211L55.494 42.477 57.2 43.322A0.98 0.98 0 0 0 58.227 43.227L62.779 39.807 64.153 42.277C64.318 42.573 64.623 42.763 64.961 42.781 65.301 42.788 65.623 42.641 65.817 42.365L70.554 35.629A0.984 0.984 0 0 0 68.944 34.5L65.11 39.95 63.948 37.864A0.982 0.982 0 0 0 62.498 37.556L57.528 41.29 55.5 40.284A0.98 0.98 0 0 0 54.19 40.714L53.431 42.179 52.19 41.066A0.983 0.983 0 0 0 50.854 41.088L46.755 45.008A0.983 0.983 0 0 0 47.435 46.704" fill="white"></path><path d="M47.435 52.44H69.75A0.984 0.984 0 1 0 69.75 50.475H47.435A0.984 0.984 0 1 0 47.435 52.44" fill="white"></path></g></svg></g></svg></g></svg></g><defs><mask></mask></defs></svg><rect width="338.1121862598347" height="200" fill="black" stroke="none" visibility="hidden"></rect></g></mask><linearGradient x1="0.054" x2="0.941" y1="0.5" y2="0.5" id="34011027-e581-4469-a6a0-20bb97c4144c"><stop stop-color="#9c7945" offset="0"></stop><stop stop-color="#faf3aa" offset="0.498"></stop><stop stop-color="#9c7945" offset="1"></stop></linearGradient><rect width="338.1121862598347" height="200" fill="#ffffff" mask="url(#d42b6d58-945d-432b-b74b-3efc32ac1d5a)" data-fill-palette-color="accent"></rect></svg><rect width="338.1121862598347" height="200" fill="none" stroke="none" visibility="hidden"></rect></g></svg></g></svg>